<svg width="300" height="300" viewBox="0 0 300 300" fill="none" xmlns="http://www.w3.org/2000/svg">
<rect width="300" height="300" fill="#FFF9ED"/>
<path d="M179.989 229.617C179.989 229.617 180.504 236.689 181.635 240.946C182.757 245.196 156.098 254.888 156.098 254.888C156.098 254.888 150.273 238.997 153.213 226.147C156.153 213.297 179.989 229.617 179.989 229.617Z" fill="#FA9618"/>
<path d="M156.098 254.89C160.73 243.818 177.611 235.747 189.167 242.04C201.588 248.8 196.115 261.931 184.652 263.849C172.512 265.876 163.638 264.013 156.098 254.89Z" fill="#FFC425"/>
<path d="M110.296 229.617C110.296 229.617 109.782 236.689 108.651 240.946C107.528 245.196 134.187 254.888 134.187 254.888C134.187 254.888 140.012 238.997 137.073 226.147C134.133 213.297 110.296 229.617 110.296 229.617Z" fill="#FA9618"/>
<path d="M134.187 254.89C129.556 243.818 112.666 235.747 101.118 242.04C88.6972 248.8 94.171 261.931 105.625 263.849C117.774 265.876 126.647 264.013 134.187 254.89Z" fill="#FFC425"/>
<path d="M219.827 181.388C219.827 181.388 253.995 163.789 255.914 136.498C256.639 126.136 252.802 117.52 244.631 115.734C234.876 113.605 227.547 123.906 226.089 127.664C221.028 140.701 209.238 181.021 209.238 181.021L219.827 181.388Z" fill="#B14830"/>
<path d="M64.6038 134.654C64.6038 134.654 33.9756 180.331 45.6561 196.581C57.3678 212.87 76.4871 186.912 76.4871 186.912L64.6038 134.654Z" fill="#B14830"/>
<path d="M219.031 71.3284C217.043 63.8975 212.263 66.6812 200.193 72.2563C188.122 77.8237 160.527 83.6639 145.143 83.6639C129.751 83.6639 102.164 77.8237 90.0932 72.2563C78.0228 66.6812 73.243 63.8975 71.2546 71.3284C69.2663 78.7515 54.6773 147.556 70.7712 186.995C86.865 226.442 118.873 237.584 145.143 237.584C171.405 237.584 203.421 226.442 219.515 186.995C235.608 147.556 221.019 78.7515 219.031 71.3284Z" fill="#C95D3C"/>
<path d="M143.343 175.566C154.851 175.566 167.491 172.057 172.06 170.661C173.784 170.139 175.639 170.084 177.316 170.732C179.959 171.753 181.784 173.897 181.784 176.369V201.165C181.784 217.095 165.347 230.046 145.144 230.046C124.941 230.046 108.496 217.095 108.496 201.165V176.369C108.496 174.388 109.665 172.626 111.482 171.48C113.549 170.17 116.137 170.022 118.453 170.794C122.874 172.268 133.822 175.566 143.343 175.566Z" fill="#F4A478"/>
<path d="M140.457 189.016C140.457 194.357 135.81 198.692 130.071 198.692C124.332 198.692 119.677 194.357 119.677 189.016C119.677 189.005 119.677 188.992 119.677 188.977C119.685 187.441 121.564 186.762 122.679 187.807C124.558 189.585 127.178 190.692 130.071 190.692C132.964 190.692 135.576 189.585 137.463 187.807C138.578 186.762 140.449 187.441 140.457 188.977C140.457 188.992 140.457 189.005 140.457 189.016Z" fill="#B14830"/>
<path d="M170.469 189.016C170.469 194.357 165.814 198.692 160.083 198.692C154.336 198.692 149.689 194.357 149.689 189.016C149.689 189.005 149.689 188.992 149.689 188.977C149.697 187.441 151.568 186.762 152.683 187.807C154.57 189.585 157.19 190.692 160.083 190.692C162.976 190.692 165.588 189.585 167.467 187.807C168.582 186.762 170.462 187.441 170.469 188.977C170.469 188.992 170.469 189.005 170.469 189.016Z" fill="#B14830"/>
<path d="M155.467 206.068C155.467 211.41 150.812 215.737 145.081 215.737C139.334 215.737 134.687 211.41 134.687 206.068C134.687 206.053 134.687 206.037 134.687 206.022C134.695 204.493 136.566 203.807 137.681 204.86C139.568 206.638 142.18 207.737 145.081 207.737C147.966 207.737 150.586 206.638 152.465 204.86C153.58 203.807 155.459 204.493 155.467 206.022C155.467 206.037 155.467 206.053 155.467 206.068Z" fill="#B14830"/>
<path d="M179.39 94.5214C166.251 93.6325 154.609 100.416 148.504 110.834C146.999 113.399 143.288 113.399 141.783 110.834C135.677 100.416 124.036 93.6325 110.897 94.5214C94.5694 95.6286 81.3372 108.798 80.1754 125.126C78.7952 144.518 94.1093 160.674 113.205 160.674C125.393 160.674 136.028 154.086 141.783 144.284C143.288 141.719 146.999 141.719 148.504 144.284C154.251 154.086 164.894 160.674 177.082 160.674C196.177 160.674 211.492 144.518 210.111 125.126C208.942 108.798 195.717 95.6286 179.39 94.5214Z" fill="#F09D72"/>
<path d="M199.296 126.404C198.61 113.968 188.349 104.424 176.38 105.079C164.411 105.741 155.264 116.361 155.951 128.798C156.637 141.243 166.898 150.787 178.867 150.124C190.836 149.469 199.982 138.849 199.296 126.404Z" fill="#FFF8ED"/>
<path d="M189.441 126.952C188.996 118.944 182.392 112.791 174.68 113.22C166.969 113.641 161.082 120.48 161.518 128.495C161.963 136.503 168.575 142.655 176.279 142.234C183.99 141.806 189.885 134.967 189.441 126.952Z" fill="#60281F"/>
<path d="M172.013 123.354C172.013 121.677 170.664 120.328 168.988 120.328C167.319 120.328 165.962 121.677 165.962 123.354C165.962 125.022 167.319 126.379 168.988 126.379C170.664 126.379 172.013 125.022 172.013 123.354Z" fill="#FFF8ED"/>
<path d="M156.286 141.89C156.286 141.89 151.63 147.738 145.143 148.198C138.648 147.738 134 141.89 134 141.89C134.156 135.949 140.098 130.662 145.143 130.662C150.188 130.662 156.13 135.949 156.286 141.89Z" fill="#FFC425"/>
<path d="M156.286 141.889C154.648 149.943 148.441 154.661 145.143 154.661C141.845 154.661 135.638 149.943 134 141.889C134 141.889 138.648 147.737 145.143 148.197C151.63 147.737 156.286 141.889 156.286 141.889Z" fill="#D86319"/>
<path d="M156.286 141.889C156.286 141.889 155.373 158.817 145.143 159.222C134.905 158.817 134 141.889 134 141.889C135.638 149.943 141.845 154.661 145.143 154.661C148.441 154.661 154.648 149.943 156.286 141.889Z" fill="#FA9618"/>
<path d="M90.9908 126.404C91.677 113.968 101.938 104.424 113.907 105.079C125.876 105.741 135.023 116.361 134.337 128.798C133.65 141.243 123.389 150.787 111.42 150.124C99.451 149.469 90.3046 138.849 90.9908 126.404Z" fill="#FFF8ED"/>
<path d="M100.846 126.952C101.291 118.944 107.895 112.791 115.607 113.22C123.318 113.641 129.206 120.48 128.761 128.495C128.324 136.503 121.712 142.655 114.008 142.234C106.297 141.806 100.402 134.967 100.846 126.952Z" fill="#60281F"/>
<path d="M118.273 123.354C118.273 121.677 119.622 120.328 121.299 120.328C122.967 120.328 124.316 121.677 124.316 123.354C124.316 125.022 122.967 126.379 121.299 126.379C119.622 126.379 118.273 125.022 118.273 123.354Z" fill="#FFF8ED"/>
<path d="M184.146 77.6545C184.146 77.6545 171.81 91.721 145.143 91.721C118.484 91.721 106.148 77.6545 106.148 77.6545L109.938 65.6855C123.35 70.5979 138.157 75.8767 143.288 77.7013C144.488 78.1302 145.798 78.1302 147.007 77.7013C152.13 75.8767 166.937 70.5979 180.356 65.6855L184.146 77.6545Z" fill="#003F9B"/>
<path d="M109.962 65.625L109.938 65.6875" stroke="black" stroke-width="0.563607" stroke-miterlimit="10"/>
<path d="M180.357 65.6875L180.326 65.625" stroke="black" stroke-width="0.563607" stroke-miterlimit="10"/>
<path d="M200.357 53.8657L147.818 72.9771C146.087 73.6009 144.2 73.6009 142.477 72.9771L89.9299 53.8657C91.5206 53.2965 96.3706 51.5577 99.3648 50.5753C102.718 49.4836 138.898 37.0234 144.434 35.1209C144.907 34.9597 145.38 34.9597 145.853 35.1209C151.389 37.0234 187.577 49.4836 190.914 50.5753C193.916 51.5577 198.766 53.2965 200.357 53.8657Z" fill="#0040CE"/>
<path d="M201.004 57.9199C196.396 59.7679 188.645 62.6607 180.356 65.6861C166.937 70.5984 152.13 75.8772 147.007 77.7018C145.798 78.1307 144.488 78.1307 143.288 77.7018C138.157 75.8772 123.35 70.5984 109.938 65.6861C101.649 62.6607 93.8988 59.7679 89.2827 57.9199C88.3002 57.5222 87.3646 56.1109 88.6745 54.6606C89.0098 54.2863 89.4542 54.0368 89.9299 53.8652L142.477 72.9766C144.2 73.6004 146.087 73.6004 147.818 72.9766L200.357 53.8652C200.832 54.0368 201.277 54.2863 201.612 54.6606C202.914 56.1109 201.994 57.5222 201.004 57.9199Z" fill="#0044BC"/>
<path d="M139.256 50.4501C139.256 48.4774 141.891 46.8789 145.143 46.8789C148.394 46.8789 151.03 48.4774 151.03 50.4501C151.03 52.4151 148.394 54.0135 145.143 54.0135C141.891 54.0135 139.256 52.4151 139.256 50.4501Z" fill="#FFC425"/>
<path d="M185.612 79.0197L182.626 65.0936C182.446 64.2593 181.838 63.5731 181.035 63.3002L145.144 51.0271L146.22 47.8926L182.111 60.1578C184.006 60.8128 185.448 62.4347 185.869 64.3918L188.856 78.3258L185.612 79.0197Z" fill="#FFC425"/>
<path d="M184.107 80.9926C184.107 78.8795 185.815 77.1719 187.928 77.1719C190.033 77.1719 191.748 78.8795 191.748 80.9926C191.748 83.0979 190.033 84.8133 187.928 84.8133C185.815 84.8133 184.107 83.0979 184.107 80.9926Z" fill="#FFC425"/>
<path d="M197.604 92.9073C197.62 94.9112 196.583 96.4707 195.102 97.4687C195.102 97.4687 195.088 97.4765 195.063 97.4921C193.901 98.2719 192.474 98.7163 191.055 98.7631C188.84 98.8411 186.688 97.9522 185.752 95.8703C182.867 89.5232 185.971 84.2678 185.971 84.2678L190.922 83.3555C190.922 83.3555 197.558 87.1216 197.604 92.9073Z" fill="#FFC425"/>
<path d="M195.102 97.4701C195.102 97.4701 195.089 97.4779 195.063 97.4935C193.901 98.2733 192.474 98.7177 191.055 98.7645C190.111 97.4078 188.685 94.0549 190.782 90.125C191.803 95.5052 195.102 97.4701 195.102 97.4701Z" fill="#FA9618"/>
</svg>
